<svg width="40" height="41" viewBox="0 0 40 41" fill="none" xmlns="http://www.w3.org/2000/svg">
<rect y="0.390625" width="40" height="40" rx="8" fill="white" fill-opacity="0.1"/>
<path d="M24 10.3906C27.3137 10.3906 30 13.0769 30 16.3906V24.3906C30 27.7043 27.3137 30.3906 24 30.3906H16C12.6863 30.3906 10 27.7043 10 24.3906V16.3906C10 13.0769 12.6863 10.3906 16 10.3906H24ZM20 15.3906C17.2386 15.3906 15 17.6292 15 20.3906C15 23.152 17.2386 25.3906 20 25.3906C22.7614 25.3906 25 23.152 25 20.3906C25 17.6292 22.7614 15.3906 20 15.3906ZM20 17.3906C21.6569 17.3906 23 18.7338 23 20.3906C23 22.0475 21.6569 23.3906 20 23.3906C18.3431 23.3906 17 22.0475 17 20.3906C17 18.7338 18.3431 17.3906 20 17.3906ZM25 13.3906C24.4477 13.3906 24 13.8383 24 14.3906C24 14.9429 24.4477 15.3906 25 15.3906C25.5523 15.3906 26 14.9429 26 14.3906C26 13.8383 25.5523 13.3906 25 13.3906Z" fill="#F3F2F2"/>
</svg>
