<svg width="40" height="41" viewBox="0 0 40 41" fill="none" xmlns="http://www.w3.org/2000/svg">
<rect y="0.390625" width="40" height="40" rx="8.5" fill="white" fill-opacity="0.1"/>
<path d="M20.3912 17.4056C20.3922 11.283 20.3971 10.9304 20.482 10.908C20.5314 10.8949 21.3096 10.8876 22.2115 10.8918L23.8511 10.8993L23.9136 11.3754C24.0527 12.4342 24.4963 13.3314 25.2397 14.0576C26.0507 14.8497 27.0797 15.2975 28.319 15.3974L28.473 15.4098L28.4865 17.1086L28.5 18.8075L27.8964 18.7773C26.6546 18.7151 25.2017 18.2464 24.1504 17.5688L23.8811 17.3952V20.8063C23.8811 24.5762 23.8631 24.8553 23.5643 25.7272C23.1804 26.8472 22.4063 27.929 21.4998 28.6121C19.0083 30.4897 15.5375 30.2788 13.3124 28.1143C10.5463 25.4237 11.0095 20.9297 14.2713 18.8096C15.2043 18.2033 16.5433 17.7912 17.5832 17.7905L17.7756 17.7903V19.5104V21.2305L17.5063 21.241C16.2065 21.2921 15.1005 22.3698 15.0169 23.6668C14.9651 24.4718 15.2123 25.1112 15.7984 25.6883C16.3478 26.2291 16.902 26.4568 17.6751 26.4593C18.407 26.4616 19.0511 26.2051 19.5722 25.7039C19.9526 25.3381 20.268 24.7327 20.34 24.2303C20.3706 24.0163 20.3906 21.3536 20.3912 17.4056Z" fill="#F3F2F2"/>
</svg>
